<svg width="16" height="16" fill="none"><path d="M15.368 5.895A2.53 2.53 0 0 0 16 4.162a2.522 2.522 0 0 0-.707-1.701 2.384 2.384 0 0 0-1.653-.728 2.378 2.378 0 0 0-1.684.65c-.1.107-.191.223-.275.344L10.174 2.3A2.524 2.524 0 0 0 9.698.99 2.417 2.417 0 0 0 8.609.156 2.346 2.346 0 0 0 7.255.057 2.391 2.391 0 0 0 6.064.73c-.334.35-.562.792-.654 1.273a2.58 2.58 0 0 0 .132 1.434L3.567 5.268a2.365 2.365 0 0 0-1.497-.275c-.514.075-.992.32-1.361.696a2.497 2.497 0 0 0-.662 1.27c-.094.483-.046.982.137 1.436.183.454.492.842.89 1.114a2.361 2.361 0 0 0 2.7-.018l4.365 3.3a2.556 2.556 0 0 0-.039 1.297c.099.428.306.822.602 1.14.295.32.667.552 1.078.674.41.122.846.13 1.26.023a2.398 2.398 0 0 0 1.101-.635c.306-.307.527-.693.64-1.118a2.55 2.55 0 0 0 .005-1.298 2.505 2.505 0 0 0-.63-1.124l-.195-.172 1.7-4.96c.64 0 1.253-.26 1.707-.723ZM9.09 11.461l-4.365-3.3a2.632 2.632 0 0 0-.08-1.666l1.974-1.833a2.363 2.363 0 0 0 3.133-.764l1.506.427c.043.592.29 1.15.697 1.57l.194.172-1.7 4.96c-.486 0-.96.151-1.36.434Zm5.14-7.908a.85.85 0 0 1 .173.9.822.822 0 0 1-.296.371.787.787 0 0 1-.891 0 .822.822 0 0 1-.296-.37.848.848 0 0 1 .172-.9.802.802 0 0 1 .57-.244.784.784 0 0 1 .568.243ZM7.202 1.9a.782.782 0 0 1 .875-.178.809.809 0 0 1 .36.305.844.844 0 0 1 0 .917.809.809 0 0 1-.36.305.782.782 0 0 1-.875-.178.829.829 0 0 1-.236-.585.848.848 0 0 1 .236-.586ZM1.847 8.03a.829.829 0 0 1-.237-.585.848.848 0 0 1 .237-.585.782.782 0 0 1 .875-.178.809.809 0 0 1 .36.304.844.844 0 0 1 0 .918.809.809 0 0 1-.36.305.782.782 0 0 1-.875-.178Zm9.17 6.062a.793.793 0 0 1-.569.243.794.794 0 0 1-.569-.243.84.84 0 0 1-.235-.585c0-.22.084-.43.235-.586a.794.794 0 0 1 .57-.242c.213 0 .417.087.568.242a.84.84 0 0 1 .236.586.84.84 0 0 1-.236.585Z" fill="#2E161D"/></svg>